<?xml version="1.0" encoding="UTF-8" standalone="no"?>
<!DOCTYPE svg PUBLIC "-//W3C//DTD SVG 1.1//EN"
 "http://www.w3.org/Graphics/SVG/1.1/DTD/svg11.dtd">
<!-- Generated by graphviz version 11.0.0 (0)
 -->
<!-- Pages: 1 -->
<svg width="875pt" height="235pt"
 viewBox="0.00 0.00 874.72 235.45" xmlns="http://www.w3.org/2000/svg" xmlns:xlink="http://www.w3.org/1999/xlink">
<g id="graph0" class="graph" transform="scale(1 1) rotate(0) translate(4 231.45)">
<polygon fill="#3f3f3f" stroke="none" points="-4,4 -4,-231.45 870.72,-231.45 870.72,4 -4,4"/>
<text text-anchor="middle" x="433.36" y="-5.3" font-family="Times,serif" font-size="16.00" fill="white">Network Map</text>
<!-- R6 -->
<g id="node1" class="node">
<title>R6</title>
<polygon fill="#006699" stroke="#006699" points="826.89,-227.45 750.54,-227.45 750.54,-152.6 826.89,-152.6 826.89,-227.45"/>
<text text-anchor="middle" x="788.72" y="-185.35" font-family="Helvetica,sans-Serif" font-size="14.00" fill="white">R6</text>
</g>
<!-- SW1 -->
<g id="node2" class="node">
<title>SW1</title>
<polygon fill="#006699" stroke="#006699" points="284.27,-227.45 195.17,-227.45 195.17,-152.6 284.27,-152.6 284.27,-227.45"/>
<text text-anchor="middle" x="239.72" y="-185.35" font-family="Helvetica,sans-Serif" font-size="14.00" fill="white">SW1</text>
</g>
<!-- R3 -->
<g id="node3" class="node">
<title>R3</title>
<polygon fill="#006699" stroke="#006699" points="94.89,-99.35 18.54,-99.35 18.54,-24.5 94.89,-24.5 94.89,-99.35"/>
<text text-anchor="middle" x="56.72" y="-57.25" font-family="Helvetica,sans-Serif" font-size="14.00" fill="white">R3</text>
</g>
<!-- R3&#45;&#45;SW1 -->
<g id="edge2" class="edge">
<title>R3&#45;&#45;SW1</title>
<path fill="none" stroke="green" stroke-dasharray="5,2" d="M57.75,-99.82C59.83,-112.16 64.14,-125.16 72.72,-134.6 103.89,-168.9 156.92,-181.66 194.86,-186.36"/>
<text text-anchor="middle" x="122.22" y="-121.3" font-family="Courier,monospace" font-size="14.00" fill="white"> &#160;&#160;&#160;&#160;&#160;&#160;&#160;&#160;&#160;&#160;&#160;</text>
<text text-anchor="middle" x="165.99" y="-173.06" font-family="Courier,monospace" font-size="14.00" fill="white">Eth 0/3</text>
<text text-anchor="middle" x="28.88" y="-103.77" font-family="Courier,monospace" font-size="14.00" fill="white">Eth 0/0</text>
</g>
<!-- R1 -->
<g id="node4" class="node">
<title>R1</title>
<polygon fill="#006699" stroke="#006699" points="216.89,-99.35 140.54,-99.35 140.54,-24.5 216.89,-24.5 216.89,-99.35"/>
<text text-anchor="middle" x="178.72" y="-57.25" font-family="Helvetica,sans-Serif" font-size="14.00" fill="white">R1</text>
</g>
<!-- R1&#45;&#45;SW1 -->
<g id="edge1" class="edge">
<title>R1&#45;&#45;SW1</title>
<path fill="none" stroke="green" stroke-dasharray="5,2" d="M173.64,-99.53C173.46,-111.18 174.86,-123.82 179.72,-134.6 183.31,-142.55 188.68,-149.84 194.75,-156.32"/>
<text text-anchor="middle" x="229.22" y="-121.3" font-family="Courier,monospace" font-size="14.00" fill="white"> &#160;&#160;&#160;&#160;&#160;&#160;&#160;&#160;&#160;&#160;&#160;</text>
<text text-anchor="middle" x="165.88" y="-143.02" font-family="Courier,monospace" font-size="14.00" fill="white">Eth 0/1</text>
<text text-anchor="middle" x="144.76" y="-103.48" font-family="Courier,monospace" font-size="14.00" fill="white">Eth 0/0</text>
</g>
<!-- R4 -->
<g id="node5" class="node">
<title>R4</title>
<polygon fill="#006699" stroke="#006699" points="399.89,-99.35 323.54,-99.35 323.54,-24.5 399.89,-24.5 399.89,-99.35"/>
<text text-anchor="middle" x="361.72" y="-57.25" font-family="Helvetica,sans-Serif" font-size="14.00" fill="white">R4</text>
</g>
<!-- R4&#45;&#45;SW1 -->
<g id="edge6" class="edge">
<title>R4&#45;&#45;SW1</title>
<path fill="none" stroke="green" stroke-dasharray="5,2" d="M323.3,-96.51C315.98,-103.25 308.5,-110.41 301.72,-117.35 291.03,-128.3 279.92,-140.75 270.11,-152.17"/>
<text text-anchor="middle" x="351.22" y="-121.3" font-family="Courier,monospace" font-size="14.00" fill="white"> &#160;&#160;&#160;&#160;&#160;&#160;&#160;&#160;&#160;&#160;&#160;</text>
<text text-anchor="middle" x="241.24" y="-138.87" font-family="Courier,monospace" font-size="14.00" fill="white">Eth 0/4</text>
<text text-anchor="middle" x="294.43" y="-83.21" font-family="Courier,monospace" font-size="14.00" fill="white">Eth 0/0</text>
</g>
<!-- R5 -->
<g id="node6" class="node">
<title>R5</title>
<polygon fill="#006699" stroke="#006699" points="582.89,-227.45 506.54,-227.45 506.54,-152.6 582.89,-152.6 582.89,-227.45"/>
<text text-anchor="middle" x="544.72" y="-185.35" font-family="Helvetica,sans-Serif" font-size="14.00" fill="white">R5</text>
</g>
<!-- R4&#45;&#45;R5 -->
<g id="edge7" class="edge">
<title>R4&#45;&#45;R5</title>
<path fill="none" stroke="green" stroke-dasharray="5,2" d="M388.33,-99.75C398.42,-111.95 410.66,-124.87 423.72,-134.6 448.75,-153.24 481.18,-167.4 506.17,-176.59"/>
<text text-anchor="middle" x="473.22" y="-121.3" font-family="Courier,monospace" font-size="14.00" fill="white"> &#160;&#160;&#160;&#160;&#160;&#160;&#160;&#160;&#160;&#160;&#160;</text>
<text text-anchor="middle" x="477.29" y="-163.29" font-family="Courier,monospace" font-size="14.00" fill="white">Eth 0/1</text>
<text text-anchor="middle" x="359.46" y="-103.7" font-family="Courier,monospace" font-size="14.00" fill="white">Eth 0/1</text>
</g>
<!-- R2 -->
<g id="node7" class="node">
<title>R2</title>
<polygon fill="#006699" stroke="#006699" points="704.89,-99.35 628.54,-99.35 628.54,-24.5 704.89,-24.5 704.89,-99.35"/>
<text text-anchor="middle" x="666.72" y="-57.25" font-family="Helvetica,sans-Serif" font-size="14.00" fill="white">R2</text>
</g>
<!-- R2&#45;&#45;R6 -->
<g id="edge5" class="edge">
<title>R2&#45;&#45;R6</title>
<path fill="none" stroke="green" stroke-dasharray="5,2" d="M705,-79.47C722.56,-88.59 742.58,-101.34 756.72,-117.35 765.56,-127.36 772.32,-140.21 777.3,-152.26"/>
<text text-anchor="middle" x="817.22" y="-121.3" font-family="Courier,monospace" font-size="14.00" fill="white"> &#160;&#160;&#160;&#160;&#160;&#160;&#160;&#160;&#160;&#160;&#160;</text>
<text text-anchor="middle" x="748.43" y="-138.96" font-family="Courier,monospace" font-size="14.00" fill="white">Eth 0/1</text>
<text text-anchor="middle" x="733.87" y="-66.17" font-family="Courier,monospace" font-size="14.00" fill="white">Eth 0/2</text>
</g>
<!-- R2&#45;&#45;SW1 -->
<g id="edge3" class="edge">
<title>R2&#45;&#45;SW1</title>
<path fill="none" stroke="green" stroke-dasharray="5,2" d="M628.17,-75.96C602.59,-85.5 568.85,-99.81 541.72,-117.35 532.14,-123.54 532.92,-129.5 522.72,-134.6 445.08,-173.42 342.69,-184.62 284.76,-187.8"/>
<text text-anchor="middle" x="591.22" y="-121.3" font-family="Courier,monospace" font-size="14.00" fill="white"> &#160;&#160;&#160;&#160;&#160;&#160;&#160;&#160;&#160;&#160;&#160;</text>
<text text-anchor="middle" x="313.63" y="-174.5" font-family="Courier,monospace" font-size="14.00" fill="white">Eth 0/2</text>
<text text-anchor="middle" x="599.3" y="-62.66" font-family="Courier,monospace" font-size="14.00" fill="white">Eth 0/0</text>
</g>
<!-- R2&#45;&#45;R5 -->
<g id="edge4" class="edge">
<title>R2&#45;&#45;R5</title>
<path fill="none" stroke="green" stroke-dasharray="5,2" d="M661.15,-99.84C657.91,-111.9 652.79,-124.72 644.72,-134.6 628.84,-154.04 604.1,-167.58 583.21,-176.3"/>
<text text-anchor="middle" x="703.22" y="-121.3" font-family="Courier,monospace" font-size="14.00" fill="white"> &#160;&#160;&#160;&#160;&#160;&#160;&#160;&#160;&#160;&#160;&#160;</text>
<text text-anchor="middle" x="612.08" y="-163" font-family="Courier,monospace" font-size="14.00" fill="white">Eth 0/0</text>
<text text-anchor="middle" x="632.27" y="-103.79" font-family="Courier,monospace" font-size="14.00" fill="white">Eth 0/1</text>
</g>
</g>
</svg>
